<svg xmlns="http://www.w3.org/2000/svg" data-name="Layer 3" viewBox="0 0 64 80" x="0px" y="0px"><path d="M60,31H57V28a3,3,0,0,0-3-3H47V12a1,1,0,0,0-.293-.707l-10-10A1,1,0,0,0,36,1H4A3,3,0,0,0,1,4V60a3,3,0,0,0,3,3H44a3,3,0,0,0,3-3V57H60a3,3,0,0,0,3-3V34A3,3,0,0,0,60,31Zm1,3v1H21V34a1,1,0,0,1,1-1H60A1,1,0,0,1,61,34ZM21,37H61v2H21Zm34-9v3H22a3,3,0,0,0-3,3V49H16a1,1,0,0,1-1-1V28a1,1,0,0,1,1-1H54A1,1,0,0,1,55,28ZM37,4.414,43.586,11H37ZM45,60a1,1,0,0,1-1,1H4a1,1,0,0,1-1-1V4A1,1,0,0,1,4,3H35v9a1,1,0,0,0,1,1h9V25H16a3,3,0,0,0-3,3V48a3,3,0,0,0,3,3h3v3a3,3,0,0,0,3,3H45Zm15-5H22a1,1,0,0,1-1-1V41H61V54A1,1,0,0,1,60,55Z"/><path d="M55,45a4,4,0,1,0,4,4A4,4,0,0,0,55,45Zm0,6a2,2,0,1,1,2-2A2,2,0,0,1,55,51Z"/><path d="M32,43H24a1,1,0,0,0-1,1v6a1,1,0,0,0,1,1h8a1,1,0,0,0,1-1V44A1,1,0,0,0,32,43Zm-1,6H25V45h6Z"/><rect x="35" y="43" width="4" height="2"/><rect x="41" y="43" width="4" height="2"/><rect x="47" y="43" width="4" height="2"/><path d="M22,16H20a3,3,0,0,0,3,3v1h2V19a3,3,0,0,0,0-6V11a1,1,0,0,1,1,1h2a3,3,0,0,0-3-3V8H23V9a3,3,0,0,0,0,6v2A1,1,0,0,1,22,16Zm0-4a1,1,0,0,1,1-1v2A1,1,0,0,1,22,12Zm3,3a1,1,0,0,1,0,2Z"/><path d="M24,23a9,9,0,1,0-9-9A9.01,9.01,0,0,0,24,23ZM24,7a7,7,0,1,1-7,7A7.009,7.009,0,0,1,24,7Z"/><rect x="33" y="21" width="10" height="2"/><rect x="5" y="21" width="10" height="2"/><rect x="35" y="17" width="8" height="2"/><rect x="5" y="17" width="8" height="2"/><rect x="5" y="55" width="10" height="2"/><rect x="5" y="51" width="8" height="2"/></svg>