<svg xmlns="http://www.w3.org/2000/svg" xmlns:xlink="http://www.w3.org/1999/xlink" viewBox="0 0 60 75" version="1.1" x="0px" y="0px"><title>Icon / blue / claim</title><desc>Created with Sketch.</desc><g stroke-width="1" fill-rule="evenodd"><path d="M39.5,14 L39.5,43 C39.5,44.1511543 38.2569047,44.8732742 37.2569259,44.3030122 C31.9600142,41.2823207 26.8869374,38.9912538 22.0394958,37.4275629 L21.3116844,37.2000151 C21.2983752,38.3108852 21.3303355,39.4184184 21.4075556,40.5227163 C21.4714563,41.4365388 21.550857,42.1331517 21.6692659,42.847357 C21.7676028,43.4404937 21.8597107,43.8944393 22.145241,45.2295791 C22.6708431,47.6870277 20.7998083,49.963039 18.1409992,50.4138811 C17.9595991,50.4446402 17.7765759,50.4664934 17.5928023,50.4793441 C14.9219153,50.6661108 12.5267011,48.9383512 12.3536261,46.4632634 C12.3408504,46.2805618 12.3409841,46.0971975 12.3540057,45.9142523 C12.4509526,44.5525537 12.4790036,44.0900276 12.4938389,43.4889597 C12.5117013,42.7652406 12.4933806,42.0643589 12.4294791,41.1505246 C12.2987457,39.2809492 12.0382552,37.4201955 11.6478727,35.5677909 C11.6085389,35.3811483 11.6057571,35.1953006 11.634675,35.0176912 C10.0730586,34.7898323 8.49052202,34.6158212 6.88798287,34.4958115 C6.1052025,34.4371913 5.5,33.7849723 5.5,33 L5.5,24 C5.5,23.2025611 6.12394378,22.5445158 6.92025499,22.5021213 C11.7365848,22.2457065 16.7760246,21.270331 22.0394958,19.5724371 C27.3160907,17.8703097 32.3809945,15.5829338 37.2359365,12.7091836 C38.2358478,12.1173135 39.5,12.8380479 39.5,14 Z M14.698,35.5217109 L14.7543443,35.8013867 C15.0792089,37.5071384 15.3018463,39.2205271 15.4221713,40.9412552 C15.4924366,41.9460963 15.5132141,42.7409658 15.4929255,43.5629815 C15.4765212,44.2276246 15.4468615,44.7166748 15.3464331,46.1272734 C15.3434115,46.1697249 15.3433807,46.2119854 15.3463183,46.2539939 C15.3945152,46.9432423 16.2570522,47.5654232 17.3835329,47.486652 C17.469423,47.480646 17.5549057,47.4704392 17.639462,47.4561014 C18.7258252,47.2718918 19.351435,46.5108717 19.2115839,45.8569992 C18.9157897,44.4738657 18.8184014,43.9938962 18.7096651,43.3380327 C18.5751752,42.5268326 18.4851276,41.7368104 18.4148634,40.7319857 C18.3132357,39.2786418 18.2846107,37.8202988 18.3289703,36.3571436 C17.1344721,36.0499473 15.9249854,35.7777472 14.702916,35.5397064 L14.698,35.5217109 Z M45.9693764,35.8551604 L46.0812574,35.9603451 L51.6260837,41.7270514 C52.2002692,42.3242134 52.1816432,43.2737782 51.5844812,43.8479638 C51.0246418,44.3862627 50.1550734,44.4035358 49.5754499,43.9115459 L49.4635688,43.8063613 L43.9187426,38.0396549 C43.344557,37.4424929 43.3631831,36.4929281 43.9603451,35.9187426 C44.5201844,35.3804436 45.3897529,35.3631705 45.9693764,35.8551604 Z M36.5,16.5819998 C32.1477261,18.9711648 27.634205,20.9199175 22.9605042,22.4275629 C19.9094942,23.4117597 16.9226262,24.1652571 14.0000572,24.6874485 L14.0014505,32.3593017 C17.0600503,32.8947633 20.0465596,33.632455 22.9605042,34.5724371 C27.3192516,35.9784846 31.8320318,37.9392193 36.5,40.453198 L36.5,16.5819998 Z M11.0007461,25.144973 C10.1616938,25.2506937 9.32811053,25.3367398 8.5,25.4030961 L8.5,31.6215277 C9.33883873,31.7005937 10.1725646,31.7940559 11.0011687,31.9019153 L11.0007461,25.144973 Z M56,26.5 C56.8284271,26.5 57.5,27.1715729 57.5,28 C57.5,28.8284271 56.8284271,29.5 56,29.5 L48,29.5 C47.1715729,29.5 46.5,28.8284271 46.5,28 C46.5,27.1715729 47.1715729,26.5 48,26.5 L56,26.5 Z M51.5844812,12.9187426 C52.1816432,13.4929281 52.2002692,14.4424929 51.6260837,15.0396549 L46.0812574,20.8063613 C45.5070719,21.4035232 44.5575071,21.4221493 43.9603451,20.8479638 C43.3631831,20.2737782 43.344557,19.3242134 43.9187426,18.7270514 L49.4635688,12.9603451 C50.0377544,12.3631831 50.9873192,12.344557 51.5844812,12.9187426 Z" fill-rule="nonzero"/></g></svg>