<svg xmlns="http://www.w3.org/2000/svg" xmlns:xlink="http://www.w3.org/1999/xlink" version="1.1" x="0px" y="0px" viewBox="0 0 64 80" style="enable-background:new 0 0 64 64;" xml:space="preserve"><path d="M56.718,44.926C60.671,41.831,63,37.093,63,32c0-5.153-2.379-9.871-6.297-12.932C60.074,15.97,62,11.65,62,7V1h-2v6  c0,4.238-1.821,8.161-4.99,10.897c-0.617-0.368-1.266-0.693-1.939-0.983C56.148,14.589,58,10.94,58,7V1h-2v2H46V1h-2v6  c0,5.061,3.023,9.576,7.703,11.502l0.355,0.146C57.49,20.885,61,26.126,61,32c0,4.628-2.202,8.907-5.894,11.613  c-0.586-0.417-1.208-0.792-1.854-1.133C56.797,40.223,59,36.305,59,32c0-5.061-3.023-9.576-7.703-11.502l-0.355-0.146  C45.51,18.115,42,12.874,42,7V1h-2v6c0,4.693,1.973,9.024,5.283,12.074c-2.616,2.047-4.522,4.812-5.51,7.926H34  c-5.558,0-10.409,3.046-13,7.549v-6.096c1.55-1.379,7-6.507,7-10.452c0-4.253-6.506-11.811-7.247-12.659L20,4.481l-0.753,0.86  C18.506,6.189,12,13.747,12,18c0,3.945,5.45,9.073,7,10.452v4.523c-2.849-5.577-8.156-12.453-12.006-14.915  C6.994,18.04,7,18.021,7,18c0-1.654-1.346-3-3-3s-3,1.346-3,3s1.346,3,3,3c0.901,0,1.7-0.407,2.251-1.038  c2.128,1.451,4.648,4.259,6.885,7.339c-1.42-0.656-2.87-1.17-4.161-1.559C8.841,24.211,7.566,23,6,23c-1.654,0-3,1.346-3,3  s1.346,3,3,3c1.031,0,1.943-0.524,2.483-1.319c2.094,0.639,5.192,1.8,7.242,3.515c1.034,1.709,1.899,3.361,2.479,4.773  C15.82,32.949,12.137,31,8,31H1v1c0,7.168,5.832,13,13,13h5v10.104C16.697,51.444,12.633,49,8,49H1v1c0,7.168,5.832,13,13,13h5h2h5  c7.168,0,13-5.832,13-13v-1h-7c-4.633,0-8.697,2.444-11,6.104V45v-1v-1h7c4.67,0,9.027-2.181,11.844-5.806  c1.013,3.057,2.905,5.747,5.452,7.738C41.927,48.031,40,52.35,40,57v6h2v-6c0-4.238,1.821-8.161,4.989-10.897  c0.617,0.368,1.267,0.693,1.939,0.983C45.852,49.411,44,53.06,44,57v6h2v-2h10v2h2v-6c0-5.061-3.023-9.576-7.703-11.502  l-0.355-0.146C44.51,43.115,41,37.874,41,32c0-4.627,2.202-8.906,5.894-11.613c0.586,0.416,1.208,0.791,1.854,1.132  C45.203,23.777,43,27.695,43,32c0,5.061,3.023,9.576,7.703,11.502l0.355,0.146C56.49,45.885,60,51.126,60,57v6h2v-6  C62,52.308,60.027,47.976,56.718,44.926z M46.198,9h9.587c-0.134,0.688-0.321,1.36-0.586,2h-8.402  C46.532,10.36,46.332,9.691,46.198,9z M56,5v2H46V5H56z M47.895,13h6.187c-0.813,1.155-1.859,2.143-3.101,2.897  C49.748,15.144,48.705,14.153,47.895,13z M4,19c-0.552,0-1-0.449-1-1s0.448-1,1-1s1,0.449,1,1S4.552,19,4,19z M6,27  c-0.552,0-1-0.449-1-1s0.448-1,1-1s1,0.449,1,1S6.552,27,6,27z M3.045,51H8c5.072,0,9.346,3.452,10.613,8.129  c-2.342-1.794-6.398-4.139-12.166-7.023l-0.895,1.789c4.751,2.375,9.982,5.348,12.288,7.105H14C8.271,61,3.552,56.599,3.045,51z   M32,51h4.955C36.448,56.599,31.729,61,26,61h-3.841c2.307-1.758,7.538-4.73,12.288-7.105l-0.895-1.789  c-5.768,2.884-9.824,5.229-12.166,7.023C22.654,54.452,26.928,51,32,51z M55.802,55h-9.587c0.134-0.688,0.321-1.36,0.586-2h8.402  C55.468,53.64,55.668,54.309,55.802,55z M46,59v-2h10v2H46z M54.105,51h-6.187c0.813-1.155,1.859-2.143,3.101-2.897  C52.252,48.856,53.295,49.847,54.105,51z M34,29h3.864c-9.382,4.897-14.093,7.919-16.463,9.831C22.821,33.191,27.926,29,34,29z   M14,18c0-2.629,3.82-7.809,6-10.453c2.18,2.643,6,7.821,6,10.453c0,2.233-2.846,5.563-5,7.702v-6.288l2.707-2.707l-1.414-1.414  L21,16.586V12h-2v7.697l-2.168-3.252l-1.664,1.109L19,23.303v2.399C16.846,23.563,14,20.233,14,18z M3.045,33H8  c5.072,0,9.346,3.452,10.613,8.129c-2.342-1.794-6.398-4.139-12.166-7.023l-0.895,1.789c4.751,2.375,9.982,5.348,12.288,7.105H14  C8.271,43,3.552,38.599,3.045,33z M28,41h-6.113c2.057-1.834,7.675-5.408,17.177-10.367C39.026,31.086,39,31.541,39,32  c0,0.876,0.072,1.738,0.205,2.583C36.87,38.547,32.611,41,28,41z M45.438,35h11.122c-0.209,0.698-0.491,1.367-0.836,2h-9.451  C45.929,36.367,45.647,35.698,45.438,35z M45,32c0-0.337,0.022-0.67,0.053-1h11.894C56.978,31.33,57,31.663,57,32  c0,0.337-0.022,0.67-0.053,1H45.053C45.022,32.67,45,32.337,45,32z M56.562,29H45.439c0.209-0.698,0.491-1.367,0.836-2h9.451  C56.071,27.633,56.353,28.302,56.562,29z M51.001,22.559c1.279,0.6,2.4,1.432,3.313,2.441h-6.622  C48.603,23.991,49.723,23.159,51.001,22.559z M47.687,39h6.622c-0.912,1.009-2.032,1.841-3.31,2.441  C49.72,40.84,48.599,40.009,47.687,39z"/></svg>