<svg xmlns="http://www.w3.org/2000/svg" data-name="Layer 3" viewBox="0 0 64 80" x="0px" y="0px"><path d="M60,35H49.741A17.984,17.984,0,0,0,38,21.024V6.816A2.993,2.993,0,0,0,37,1H27a2.993,2.993,0,0,0-1,5.816V21.024A18,18,0,0,0,14.259,35H4a3,3,0,0,0,0,6H5V62a1,1,0,0,0,1,1h4a1,1,0,0,0,1-1V41h3.269a17.98,17.98,0,0,0,35.462,0H53V62a1,1,0,0,0,1,1h4a1,1,0,0,0,1-1V41h1a3,3,0,0,0,0-6ZM27,3H37a1,1,0,0,1,0,2H27a1,1,0,0,1,0-2Zm.294,19.7A1,1,0,0,0,28,21.747V7h8V21.747a1,1,0,0,0,.706.956,16,16,0,0,1,8.9,6.874l-1.269.634a7.6,7.6,0,0,1-6.683,0A11.533,11.533,0,0,0,32.528,29H31.472a11.533,11.533,0,0,0-5.13,1.211,7.6,7.6,0,0,1-6.684,0l-1.264-.632A16.072,16.072,0,0,1,27.294,22.7Zm-9.84,8.642,1.31.655a9.635,9.635,0,0,0,8.473,0,9.517,9.517,0,0,1,4.235-1h1.056a9.524,9.524,0,0,1,4.236,1,9.47,9.47,0,0,0,8.471,0l1.313-.656A15.939,15.939,0,0,1,47.718,35H16.282A15.9,15.9,0,0,1,17.454,31.345ZM9,61H7V41H9Zm23-7A15.987,15.987,0,0,1,16.293,41H47.707A15.987,15.987,0,0,1,32,54Zm25,7H55V41h2Zm3-22H4a1,1,0,0,1,0-2H60a1,1,0,0,1,0,2Z"/><path d="M25,49a3,3,0,1,0-3-3A3,3,0,0,0,25,49Zm0-4a1,1,0,1,1-1,1A1,1,0,0,1,25,45Z"/><path d="M31,28a3,3,0,1,0-3-3A3,3,0,0,0,31,28Zm0-4a1,1,0,1,1-1,1A1,1,0,0,1,31,24Z"/><path d="M41,48a3,3,0,1,0-3-3A3,3,0,0,0,41,48Zm0-4a1,1,0,1,1-1,1A1,1,0,0,1,41,44Z"/><path d="M44,20a5,5,0,1,0,5-5A5.006,5.006,0,0,0,44,20Zm5-3a3,3,0,1,1-3,3A3,3,0,0,1,49,17Z"/><path d="M45,13a3,3,0,1,0-3-3A3,3,0,0,0,45,13Zm0-4a1,1,0,1,1-1,1A1,1,0,0,1,45,9Z"/><path d="M8,33a5,5,0,1,0-5-5A5.006,5.006,0,0,0,8,33Zm0-8a3,3,0,1,1-3,3A3,3,0,0,1,8,25Z"/><path d="M12,21a3,3,0,1,0-3-3A3,3,0,0,0,12,21Zm0-4a1,1,0,1,1-1,1A1,1,0,0,1,12,17Z"/></svg>