<svg xmlns="http://www.w3.org/2000/svg" data-name="Layer 1" viewBox="0 0 64 80" x="0px" y="0px"><title>schedule copy</title><path d="M4.75,21h36a1.5,1.5,0,0,0,1.5-1.5V9.5A1.5,1.5,0,0,0,40.75,8h-36a1.5,1.5,0,0,0-1.5,1.5v10A1.5,1.5,0,0,0,4.75,21Zm1.5-10h33v7h-33Z"/><path d="M13.75,27.5v10a1.5,1.5,0,0,0,1.5,1.5h44a1.5,1.5,0,0,0,1.5-1.5v-10a1.5,1.5,0,0,0-1.5-1.5h-44A1.5,1.5,0,0,0,13.75,27.5Zm3,1.5h41v7h-41Z"/><path d="M60.75,55.5v-10a1.5,1.5,0,0,0-1.5-1.5h-20a1.5,1.5,0,0,0-1.5,1.5v10a1.5,1.5,0,0,0,1.5,1.5h20A1.5,1.5,0,0,0,60.75,55.5Zm-3-1.5h-17V47h17Z"/><circle cx="9.25" cy="23" r="1.5"/><circle cx="9.25" cy="29" r="1.5"/><circle cx="9.25" cy="47" r="1.5"/><circle cx="9.25" cy="35" r="1.5"/><circle cx="9.25" cy="41" r="1.5"/><circle cx="9.25" cy="5" r="1.5"/><circle cx="9.25" cy="53" r="1.5"/><circle cx="9.25" cy="59" r="1.5"/><circle cx="27.25" cy="23" r="1.5"/><circle cx="27.25" cy="59" r="1.5"/><circle cx="27.25" cy="47" r="1.5"/><circle cx="27.25" cy="41" r="1.5"/><circle cx="27.25" cy="53" r="1.5"/><circle cx="27.25" cy="5" r="1.5"/><circle cx="45.25" cy="17" r="1.5"/><circle cx="45.25" cy="59" r="1.5"/><circle cx="45.25" cy="5" r="1.5"/><circle cx="45.25" cy="41" r="1.5"/><circle cx="45.25" cy="23" r="1.5"/><circle cx="45.25" cy="11" r="1.5"/></svg>