<svg xmlns="http://www.w3.org/2000/svg" xmlns:xlink="http://www.w3.org/1999/xlink" version="1.1" x="0px" y="0px" viewBox="0 0 100 125" style="enable-background:new 0 0 100 100;" xml:space="preserve"><g><path d="M25.140625,29.1079102h10.7470703c0.5527344,0,1-0.4477539,1-1s-0.4472656-1-1-1H25.140625c-0.5527344,0-1,0.4477539-1,1   S24.5878906,29.1079102,25.140625,29.1079102z"/><path d="M25.140625,35.3989258h10.7470703c0.5527344,0,1-0.4477539,1-1s-0.4472656-1-1-1H25.140625c-0.5527344,0-1,0.4477539-1,1   S24.5878906,35.3989258,25.140625,35.3989258z"/><path d="M25.140625,41.6899414h10.7470703c0.5527344,0,1-0.4477539,1-1s-0.4472656-1-1-1H25.140625c-0.5527344,0-1,0.4477539-1,1   S24.5878906,41.6899414,25.140625,41.6899414z"/><path d="M59.28125,29.1079102h0.5908203c0.5527344,0,1-0.4477539,1-1s-0.4472656-1-1-1H59.28125c-0.5527344,0-1,0.4477539-1,1   S58.7285156,29.1079102,59.28125,29.1079102z"/><path d="M49.125,29.1079102h6.0283203c0.5527344,0,1-0.4477539,1-1s-0.4472656-1-1-1H49.125c-0.5527344,0-1,0.4477539-1,1   S48.5722656,29.1079102,49.125,29.1079102z"/><path d="M49.125,35.3989258h10.7470703c0.5527344,0,1-0.4477539,1-1s-0.4472656-1-1-1H49.125c-0.5527344,0-1,0.4477539-1,1   S48.5722656,35.3989258,49.125,35.3989258z"/><path d="M49.125,41.6899414h10.7470703c0.5527344,0,1-0.4477539,1-1s-0.4472656-1-1-1H49.125c-0.5527344,0-1,0.4477539-1,1   S48.5722656,41.6899414,49.125,41.6899414z"/><path d="M33.5605469,50.0322266h-0.7861328c-0.5527344,0-1,0.4477539-1,1s0.4472656,1,1,1h0.7861328c0.5527344,0,1-0.4477539,1-1   S34.1132813,50.0322266,33.5605469,50.0322266z"/><path d="M64.4707031,60.1777344h-20.793457c0.3579102-0.7145996,1.0897827-1.2109375,1.9418945-1.2109375h0.3271484   c1.9573364,0,3.5928955-1.3583374,4.0441284-3.1782227h16.4998169c0.5527344,0,1-0.4477539,1-1v-7.5126953V21.0634766   c0-0.5522461-0.4472656-1-1-1H47.1894531c-1.9418945,0-3.6578979,0.9803467-4.6835938,2.4707642   c-1.0256958-1.4904175-2.7416992-2.4707642-4.6835938-2.4707642H18.5214844c-0.5527344,0-1,0.4477539-1,1v26.2124023v7.5126953   c0,0.5522461,0.4472656,1,1,1h23.984375h5.364502c-0.3639526,0.6965332-1.0852661,1.1782227-1.9240723,1.1782227h-0.3271484   c-1.9693604,0-3.6150513,1.3740845-4.0543213,3.2109375H20.5419922C16.3837891,60.1777344,13,63.5610352,13,67.7192383v11.2172852   c0,0.5522461,0.4472656,1,1,1h57.0117188c0.5527344,0,1-0.4477539,1-1V67.7192383   C72.0117188,63.5610352,68.6289063,60.1777344,64.4707031,60.1777344z M47.1894531,22.0634766h18.3007813v24.2124023H47.1894531   c-1.4052124,0-2.6904907,0.5153809-3.6835938,1.3635254v-21.892334   C43.5058594,23.7158203,45.1582031,22.0634766,47.1894531,22.0634766z M37.8222656,22.0634766   c2.03125,0,3.6835938,1.6523438,3.6835938,3.6835938v21.892334c-0.993103-0.8481445-2.2783813-1.3635254-3.6835938-1.3635254   H19.5214844V22.0634766H37.8222656z M19.5214844,52.0322266h9.0263672c0.5527344,0,1-0.4477539,1-1s-0.4472656-1-1-1h-9.0263672   v-1.7563477h18.3007813c2.03125,0,3.6835938,1.6523438,3.6835938,3.6835938v1.8291016h-21.984375V52.0322266z    M43.5058594,51.9594727c0-2.03125,1.6523438-3.6835938,3.6835938-3.6835938h18.3007813v1.7563477H51.4511719   c-0.5527344,0-1,0.4477539-1,1s0.4472656,1,1,1h14.0390625v1.7563477h-21.984375V51.9594727z M70.0117188,77.9365234H15V67.7192383   c0-3.0556641,2.4863281-5.5415039,5.5419922-5.5415039h43.9287109c3.0556641,0,5.5410156,2.4858398,5.5410156,5.5415039V77.9365234   z"/><path d="M21.5683594,66.6992188h0.5c0.5527344,0,1-0.4477539,1-1s-0.4472656-1-1-1h-0.5c-0.5527344,0-1,0.4477539-1,1   S21.015625,66.6992188,21.5683594,66.6992188z"/><path d="M46.1738281,66.6992188h1.0488281c0.5527344,0,1-0.4477539,1-1s-0.4472656-1-1-1h-1.0488281c-0.5527344,0-1,0.4477539-1,1   S45.6210938,66.6992188,46.1738281,66.6992188z"/><path d="M29.4052734,66.6992188h1.0478516c0.5527344,0,1-0.4477539,1-1s-0.4472656-1-1-1h-1.0478516c-0.5527344,0-1,0.4477539-1,1   S28.8525391,66.6992188,29.4052734,66.6992188z"/><path d="M54.5585938,66.6992188h1.0478516c0.5527344,0,1-0.4477539,1-1s-0.4472656-1-1-1h-1.0478516c-0.5527344,0-1,0.4477539-1,1   S54.0058594,66.6992188,54.5585938,66.6992188z"/><path d="M37.7900391,66.6992188h1.0478516c0.5527344,0,1-0.4477539,1-1s-0.4472656-1-1-1h-1.0478516c-0.5527344,0-1,0.4477539-1,1   S37.2373047,66.6992188,37.7900391,66.6992188z"/><path d="M63.4433594,64.6992188h-0.5c-0.5527344,0-1,0.4477539-1,1s0.4472656,1,1,1h0.5c0.5527344,0,1-0.4477539,1-1   S63.9960938,64.6992188,63.4433594,64.6992188z"/><path d="M21.5683594,71.0571289h0.5c0.5527344,0,1-0.4477539,1-1s-0.4472656-1-1-1h-0.5c-0.5527344,0-1,0.4477539-1,1   S21.015625,71.0571289,21.5683594,71.0571289z"/><path d="M37.7900391,71.0571289h1.0478516c0.5527344,0,1-0.4477539,1-1s-0.4472656-1-1-1h-1.0478516c-0.5527344,0-1,0.4477539-1,1   S37.2373047,71.0571289,37.7900391,71.0571289z"/><path d="M29.4052734,71.0571289h1.0478516c0.5527344,0,1-0.4477539,1-1s-0.4472656-1-1-1h-1.0478516c-0.5527344,0-1,0.4477539-1,1   S28.8525391,71.0571289,29.4052734,71.0571289z"/><path d="M54.5585938,71.0571289h1.0478516c0.5527344,0,1-0.4477539,1-1s-0.4472656-1-1-1h-1.0478516c-0.5527344,0-1,0.4477539-1,1   S54.0058594,71.0571289,54.5585938,71.0571289z"/><path d="M46.1738281,71.0571289h1.0488281c0.5527344,0,1-0.4477539,1-1s-0.4472656-1-1-1h-1.0488281c-0.5527344,0-1,0.4477539-1,1   S45.6210938,71.0571289,46.1738281,71.0571289z"/><path d="M63.4433594,69.0571289h-0.5c-0.5527344,0-1,0.4477539-1,1s0.4472656,1,1,1h0.5c0.5527344,0,1-0.4477539,1-1   S63.9960938,69.0571289,63.4433594,69.0571289z"/><path d="M63.4433594,73.4150391h-0.6230469c-0.5527344,0-1,0.4477539-1,1s0.4472656,1,1,1h0.6230469c0.5527344,0,1-0.4477539,1-1   S63.9960938,73.4150391,63.4433594,73.4150391z"/><path d="M58.6259766,73.4150391h-32.109375c-0.5527344,0-1,0.4477539-1,1s0.4472656,1,1,1h32.109375c0.5527344,0,1-0.4477539,1-1   S59.1787109,73.4150391,58.6259766,73.4150391z"/><path d="M22.1914063,73.4150391h-0.6230469c-0.5527344,0-1,0.4477539-1,1s0.4472656,1,1,1h0.6230469c0.5527344,0,1-0.4477539,1-1   S22.7441406,73.4150391,22.1914063,73.4150391z"/><path d="M82.7353516,33.5618896v-0.1234131c0-1.8051758-1.46875-3.2739258-3.2744141-3.2739258h-0.1298828   c-1.8046875,0-3.2734375,1.46875-3.2734375,3.2739258v0.1234131c-2.4429321,0.5933838-4.2646484,2.793457-4.2646484,5.416626   v9.6796875c0,3.0766602,2.5029297,5.5795898,5.5791016,5.5795898h4.0488281C84.4970703,54.237793,87,51.7348633,87,48.6582031   v-9.6796875C87,36.3553467,85.1782837,34.1552734,82.7353516,33.5618896z M85,38.9785156v1.1484375h-2.9716797v-0.1040039   c0-1.0741577-0.6586304-1.996582-1.6318359-2.387085v-2.2369385h1.0244141C83.3945313,35.3989258,85,37.0048828,85,38.9785156z    M78.7636719,40.0229492c0-0.3237305,0.2636719-0.5869141,0.6777344-0.5869141   c0.3232422,0,0.5869141,0.2631836,0.5869141,0.5869141v2.2084961c0,0.3237305-0.2636719,0.5869141-0.5869141,0.5869141h-0.0908203   c-0.3232422,0-0.5869141-0.2631836-0.5869141-0.5869141V40.0229492z M79.3310547,32.1645508h0.1298828   c0.6894531,0,1.2529297,0.550293,1.2734375,1.234375h-2.6757813   C78.0791016,32.7148438,78.6425781,32.1645508,79.3310547,32.1645508z M77.3720703,35.3989258h1.0244141v2.2245483   c-0.9546509,0.3810425-1.6328125,1.3106689-1.6328125,2.3994751v0.1040039h-2.9707031v-1.1484375   C73.7929688,37.0048828,75.3984375,35.3989258,77.3720703,35.3989258z M81.4208984,52.237793h-4.0488281   c-1.9736328,0-3.5791016-1.605957-3.5791016-3.5795898v-6.53125h2.9707031v0.1044922   c0,1.4262695,1.1601563,2.5869141,2.5869141,2.5869141h0.0908203c1.4267578,0,2.5869141-1.1606445,2.5869141-2.5869141v-0.1044922   H85v6.53125C85,50.6318359,83.3945313,52.237793,81.4208984,52.237793z"/></g></svg>