<svg xmlns="http://www.w3.org/2000/svg" xmlns:xlink="http://www.w3.org/1999/xlink" version="1.1" x="0px" y="0px" viewBox="0 0 67 83.75" enable-background="new 0 0 67 67" xml:space="preserve"><g><g><path d="M54.09917,12.59376L45.31402,3.8086c-0.1933-0.19238-0.43842-0.21179-0.60028-0.21582    c-0.00049,0.00006-0.00098-0.00006-0.0014,0H17.01177c-0.41406,0-0.75,0.33594-0.75,0.75v2.93066h-2.93115    c-0.41406,0-0.75,0.33594-0.75,0.75v54.63379c0,0.41406,0.33594,0.75,0.75,0.75h36.65283c0.41406,0,0.75-0.33594,0.75-0.75    v-2.93066h2.93115c0.41406,0,0.75-0.33594,0.75-0.75V13.3014C54.45165,12.98585,54.26617,12.70564,54.09917,12.59376z     M45.53423,6.14991l6.31396,6.31396h-5.25098c-0.63177,0-1.06177-0.5257-1.06299-1.05518V6.14991z M49.23345,61.90723H14.08062    V8.77345h2.18115v50.20313c0,0.41406,0.33594,0.75,0.75,0.75h32.22168V61.90723z M52.9146,58.22657    c-11.03424,0-19.34174,0-35.15283,0c0-17.76862,0-35.44366,0-53.13379h26.27197v6.31348    c0,1.40912,1.16467,2.56055,2.55957,2.56055h6.32129V58.22657z"/></g><g><path d="M21.69488,10.21095h13.72656c0.41406,0,0.75-0.33594,0.75-0.75s-0.33594-0.75-0.75-0.75H21.69488    c-0.41406,0-0.75,0.33594-0.75,0.75S21.28082,10.21095,21.69488,10.21095z"/></g><g><path d="M21.69488,14.64942h13.72656c0.41406,0,0.75-0.33594,0.75-0.75s-0.33594-0.75-0.75-0.75H21.69488    c-0.41406,0-0.75,0.33594-0.75,0.75S21.28082,14.64942,21.69488,14.64942z"/></g><g><path d="M20.94488,18.33888c0,0.41406,0.33594,0.75,0.75,0.75h27.28125c0.41406,0,0.75-0.33594,0.75-0.75s-0.33594-0.75-0.75-0.75    H21.69488C21.28082,17.58888,20.94488,17.92481,20.94488,18.33888z"/></g><g><path d="M48.97613,22.02735H21.69488c-0.41406,0-0.75,0.33594-0.75,0.75s0.33594,0.75,0.75,0.75h27.28125    c0.41406,0,0.75-0.33594,0.75-0.75S49.39019,22.02735,48.97613,22.02735z"/></g><g><path d="M21.69488,27.96681h17.7334c0.41406,0,0.75-0.33594,0.75-0.75s-0.33594-0.75-0.75-0.75h-17.7334    c-0.41406,0-0.75,0.33594-0.75,0.75S21.28082,27.96681,21.69488,27.96681z"/></g><g><path d="M48.97613,39.78321H37.0899c-0.41406,0-0.75,0.33594-0.75,0.75s0.33594,0.75,0.75,0.75h11.88623    c0.41406,0,0.75-0.33594,0.75-0.75S49.39019,39.78321,48.97613,39.78321z"/></g><g><path d="M48.97613,44.22266H21.69488c-0.41406,0-0.75,0.33594-0.75,0.75s0.33594,0.75,0.75,0.75h27.28125    c0.41406,0,0.75-0.33594,0.75-0.75S49.39019,44.22266,48.97613,44.22266z"/></g><g><path d="M48.97613,48.66114H21.69488c-0.41406,0-0.75,0.33594-0.75,0.75s0.33594,0.75,0.75,0.75h27.28125    c0.41406,0,0.75-0.33594,0.75-0.75S49.39019,48.66114,48.97613,48.66114z"/></g><g><path d="M48.97613,53.10059H21.69488c-0.41406,0-0.75,0.33594-0.75,0.75s0.33594,0.75,0.75,0.75h27.28125    c0.41406,0,0.75-0.33594,0.75-0.75S49.39019,53.10059,48.97613,53.10059z"/></g><g><path d="M21.69488,41.28321h12.44238c0.41406,0,0.75-0.33594,0.75-0.75v-7.24512c0-0.41406-0.33594-0.75-0.75-0.75H21.69488    c-0.41406,0-0.75,0.33594-0.75,0.75v7.24512C20.94488,40.94727,21.28082,41.28321,21.69488,41.28321z M22.44488,34.03809h10.94238    v5.74512H22.44488V34.03809z"/></g></g></svg>