<svg xmlns="http://www.w3.org/2000/svg" xmlns:xlink="http://www.w3.org/1999/xlink" version="1.1" x="0px" y="0px" viewBox="0 0 66 82.5" enable-background="new 0 0 66 66" xml:space="preserve"><g><path d="M64.775,18.437c-0.055-0.271-0.254-0.49-0.519-0.57c-0.267-0.081-0.553-0.008-0.747,0.188l-6.476,6.476L49.804,17.3   l6.472-6.471c0.195-0.195,0.268-0.482,0.188-0.747c-0.08-0.265-0.299-0.464-0.57-0.519c-5.841-1.174-11.658,2.352-13.197,8.264   c-0.464-0.916-1.004-1.798-1.615-2.645l1.067-1.286c0.904-1.085,0.761-2.706-0.333-3.617l-3.783-3.142   c-1.049-0.871-2.746-0.712-3.616,0.334L33.347,8.76c-1.708-0.808-3.494-1.362-5.323-1.651L27.87,5.442   c-0.132-1.422-1.398-2.451-2.789-2.315L20.173,3.58c-1.417,0.131-2.461,1.376-2.33,2.789l0.154,1.666   c-1.775,0.639-3.424,1.512-4.917,2.6l-1.288-1.071c-1.09-0.904-2.711-0.753-3.616,0.334L5.02,13.683   c-0.904,1.088-0.755,2.71,0.334,3.616l1.286,1.068c-0.8,1.7-1.354,3.485-1.652,5.326l-1.663,0.154   c-1.403,0.129-2.446,1.383-2.316,2.788l0.454,4.91c0.125,1.347,1.26,2.339,2.552,2.339c0.132,0,1.213-0.1,1.907-0.165   c0.618,1.744,1.488,3.396,2.594,4.93l-1.068,1.276c-0.907,1.091-0.753,2.713,0.335,3.616l3.796,3.154   c1.093,0.906,2.715,0.751,3.616-0.335l1.064-1.28c0.844,0.403,1.719,0.75,2.62,1.027l-6.151,6.151c-1.704,1.703-1.703,4.46,0,6.162   l3.188,3.189c1.704,1.704,4.459,1.703,6.162,0L51.81,31.875C59.661,33.164,66.331,26.203,64.775,18.437z M4.114,32.38   c-0.577,0.051-1.103-0.382-1.157-0.973c-0.423-4.572-0.905-5.936,0.507-6.066l1.324-0.122c-0.1,1.172-0.098,2.361,0.014,3.546   c0.104,1.182,0.322,2.354,0.641,3.493L4.114,32.38z M35.571,8.43c0.372-0.448,1.05-0.516,1.503-0.139l3.783,3.142   c0.453,0.376,0.516,1.053,0.139,1.504l-0.849,1.023c-1.534-1.822-3.354-3.334-5.427-4.507L35.571,8.43z M20.31,5.074l4.909-0.454   c0.585-0.053,1.102,0.376,1.156,0.961l0.123,1.324c-1.164-0.104-2.352-0.103-3.546,0.01c-1.211,0.114-2.381,0.332-3.493,0.64   l-0.122-1.323C19.282,5.643,19.717,5.129,20.31,5.074z M6.313,16.145c-0.453-0.377-0.515-1.051-0.14-1.503l3.155-3.785   c0.377-0.454,1.052-0.514,1.504-0.139l1.048,0.871c-1.803,1.51-3.341,3.354-4.521,5.425L6.313,16.145z M14.04,45.402   c-0.377,0.452-1.05,0.515-1.503,0.139l-3.796-3.154c-0.455-0.377-0.512-1.055-0.142-1.501l0.853-1.018   c1.538,1.816,3.394,3.355,5.44,4.509L14.04,45.402z M16.393,43.482c-2.451-1.23-4.644-3.046-6.34-5.25   C8.752,36.535,7.77,34.67,7.136,32.68c-0.438-1.31-0.721-2.672-0.841-4.053c-0.132-1.39-0.106-2.783,0.076-4.141   c0.272-2.083,0.897-4.098,1.854-5.986c1.266-2.482,3.087-4.668,5.276-6.326c1.642-1.278,3.5-2.262,5.528-2.925   c1.267-0.423,2.634-0.705,4.063-0.84c1.399-0.134,2.79-0.105,4.145,0.087c2.069,0.261,4.081,0.885,5.979,1.853   c0,0,0.001,0.001,0.001,0.001c2.496,1.266,4.622,3.033,6.324,5.253c0.002,0.002,0.005,0.003,0.007,0.006   c1.216,1.588,2.15,3.327,2.781,5.169c0.005,0.58,0.038,1.161,0.134,1.743l-1.407,1.407c-0.624-3.422-2.291-6.498-4.716-8.855   c-3.321-3.235-7.947-5.055-13.073-4.624C13.924,11.36,7.496,19.596,8.334,28.44c0.691,7.257,5.998,13.36,13.481,14.729   l-1.718,1.718C18.809,44.555,17.565,44.089,16.393,43.482z M25.132,17.826c-5.249,0-9.519,4.27-9.519,9.518   c0,5.248,4.269,9.518,9.519,9.518c1.341,0,2.616-0.282,3.774-0.784l-5.766,5.766c-7.078-0.759-12.64-6.401-13.311-13.546   c-0.755-7.964,5.007-15.525,13.576-16.357c4.676-0.393,8.86,1.261,11.89,4.204c2.465,2.4,4.065,5.605,4.443,9.1l-5.872,5.873   c0.502-1.158,0.784-2.433,0.784-3.774C34.649,22.097,30.38,17.826,25.132,17.826z M33.149,27.345c0,4.421-3.597,8.018-8.018,8.018   c-4.422,0-8.018-3.597-8.018-8.018s3.597-8.018,8.018-8.018C29.552,19.326,33.149,22.923,33.149,27.345z M51.028,30.536   L21.016,60.548c-1.08,1.079-2.961,1.079-4.041,0l-1.062-1.062l22.213-22.214c0.293-0.293,0.293-0.768,0-1.061   c-0.293-0.293-0.768-0.293-1.061,0L14.853,58.425l-1.066-1.066c-1.118-1.116-1.116-2.926,0-4.041   c3.77-3.77,26.676-26.676,30.016-30.016c0.178-0.177,0.255-0.432,0.205-0.678c-1.253-6.241,3.667-12.071,10.124-11.773   l-5.918,5.918c-0.141,0.141-0.22,0.331-0.22,0.53c0,0.199,0.079,0.39,0.22,0.53l8.29,8.29c0.293,0.293,0.768,0.293,1.061,0   l5.922-5.922c0.313,6.361-5.446,11.414-11.779,10.133C51.46,30.282,51.206,30.358,51.028,30.536z"/><path d="M40.067,33.211l-1.385,1.385c-0.293,0.293-0.293,0.768,0,1.061c0.293,0.293,0.768,0.293,1.061,0l1.385-1.385   c0.293-0.293,0.293-0.768,0-1.061C40.835,32.918,40.36,32.918,40.067,33.211z"/></g></svg>