<svg xmlns="http://www.w3.org/2000/svg" xmlns:xlink="http://www.w3.org/1999/xlink" version="1.1" x="0px" y="0px" viewBox="0 0 100 125" style="enable-background:new 0 0 100 100;" xml:space="preserve"><path d="M43,44c0,3.9,3.1,7,7,7s7-3.1,7-7s-3.1-7-7-7S43,40.1,43,44z M53,44c0,1.6-1.3,3-3,3s-3-1.4-3-3c0-1.7,1.3-3,3-3  S53,42.3,53,44z M93,71h-8V45.1c1.7,0.4,3.5,0.2,5.1-0.7c2.4-1.3,3.9-3.8,3.9-6.5c0-2.5-1.2-4.8-3.3-6.2L51.1,5.3  c-0.7-0.4-1.5-0.4-2.2,0L9.3,31.7C7.2,33.1,6,35.4,6,37.9c0,2.7,1.5,5.2,3.9,6.5c1.1,0.6,2.3,0.9,3.5,0.9c0.5,0,1.1-0.1,1.6-0.2V71  H7c-1.1,0-2,0.9-2,2v20c0,1.1,0.9,2,2,2h86c1.1,0,2-0.9,2-2V73C95,71.9,94.1,71,93,71z M15,91H9v-6h6V91z M15,81H9v-6h6V81z M37,91  H19v-6h18V91z M19,81v-6h6v6H19z M59,91H41v-6h18V91z M59,81H41V61h18V81z M81,91H63v-6h18V91z M81,81h-6v-6h6V81z M81,71h-8  c-1.1,0-2,0.9-2,2v8h-8V59c0-1.1-0.9-2-2-2H39c-1.1,0-2,0.9-2,2v22h-8v-8c0-1.1-0.9-2-2-2h-8V43.1l31-20.7l31,20.7V71z M51.1,18.3  c-0.7-0.4-1.5-0.4-2.2,0L15.3,40.7c-1.1,0.7-2.4,0.8-3.5,0.2c-1.1-0.6-1.8-1.7-1.8-3c0-1.1,0.6-2.2,1.5-2.8L50,9.4l38.5,25.7  c1,0.6,1.5,1.7,1.5,2.8c0,1.3-0.7,2.4-1.8,3c-1.1,0.6-2.4,0.5-3.5-0.2L51.1,18.3z M91,91h-6v-6h6V91z M91,81h-6v-6h6V81z"/></svg>