<svg xmlns="http://www.w3.org/2000/svg" xmlns:xlink="http://www.w3.org/1999/xlink" version="1.1" x="0px" y="0px" viewBox="0 0 64 80" style="enable-background:new 0 0 64 64;" xml:space="preserve"><g><path d="M59,19c2.206,0,4-1.794,4-4v-2c0-2.206-1.794-4-4-4h-8V7c1.103,0,2-0.897,2-2V3c0-1.103-0.897-2-2-2H3C1.897,1,1,1.897,1,3   v2c0,1.103,0.897,2,2,2v20.569L1,25.68V63h39.515L12.986,37H41v17c0,1.654,1.346,3,3,3h16c1.654,0,3-1.346,3-3V28   c0-1.654-1.346-3-3-3h-9v-6H59z M55,13H33v-2h22V13z M31,16.132L27.803,14L31,11.868V16.132z M33,15h22v2H33V15z M61,13v2   c0,1.103-0.897,2-2,2h-2v-6h2C60.103,11,61,11.897,61,13z M3,3h48l0.001,2H3V3z M3,61v-2h2v-2H3v-2h2v-2H3v-2h2v-2H3v-2h2v-2H3v-2   h2v-2H3v-2h2v-2H3v-6.68L35.485,61H3z M61,28v26c0,0.552-0.449,1-1,1H44c-0.551,0-1-0.448-1-1V28c0-0.552,0.449-1,1-1h16   C60.551,27,61,27.448,61,28z M49,25h-5H32v2h9.184C41.072,27.314,41,27.648,41,28v1h-9v2h9v4H10.868L5,29.458V7h44v2H31.697l-7.5,5   l7.5,5H49V25z"/><polygon points="22,13 15.125,13 13.318,26.547 10.48,23 7,23 7,25 9.52,25 14.682,31.453 16.875,15 22,15  "/><polygon points="28.293,18.293 24,22.586 19.707,18.293 18.293,19.707 22.586,24 18.293,28.293 19.707,29.707 24,25.414    28.293,29.707 29.707,28.293 25.414,24 29.707,19.707  "/><rect x="32" y="21" width="15" height="2"/><path d="M7,39.6V57h18.423L7,39.6z M9,44.24L20.393,55H9V44.24z"/><path d="M59,29H45v8h14V29z M57,35H47v-4h10V35z"/><rect x="53" y="41" width="6" height="2"/><rect x="45" y="47" width="6" height="2"/><rect x="45" y="51" width="6" height="2"/><polygon points="47,45 49,45 49,43 51,43 51,41 49,41 49,39 47,39 47,41 45,41 45,43 47,43  "/><polygon points="57.293,47.293 56,48.586 54.707,47.293 53.293,48.707 54.586,50 53.293,51.293 54.707,52.707 56,51.414    57.293,52.707 58.707,51.293 57.414,50 58.707,48.707  "/></g></svg>