<svg xmlns="http://www.w3.org/2000/svg" xmlns:xlink="http://www.w3.org/1999/xlink" version="1.1" x="0px" y="0px" viewBox="0 0 100 125" style="enable-background:new 0 0 100 100;" xml:space="preserve"><path d="M23.8947754,53.1870728c-0.8137207-0.4227295-1.7353516-0.6655884-2.7141113-0.6655884  c-3.2607422,0-5.9140625,2.6533203-5.9140625,5.9140625c0,1.6296997,0.6628418,3.107666,1.7330322,4.1784668  c-1.7286377,3.5595093-1.9486084,6.5543213-0.5963135,8.6740723c1.3203125,2.0703125,3.9941406,3.1210938,7.7675781,3.1210938  c2.25,0,4.8896484-0.3730469,7.8681641-1.1269531c1.9223633-0.4863281,3.9384766-1.1174316,6.0195312-1.8776245  C40.4979248,82.6533813,44.8366699,90,49.8857422,90c5.0749512,0,9.4333496-7.4203491,11.8657227-18.7666626  c5.5206299,2.0476074,10.4550781,3.1367798,14.3198242,3.1367798c3.7080078-0.0009766,6.4384766-0.9951172,7.7705078-3.0820312  c1.394043-2.1831665,1.1192627-5.2896118-0.7550049-8.9922485c1.017334-1.0627441,1.6466064-2.500061,1.6466064-4.0839233  c0-3.2607422-2.6523438-5.9140625-5.9130859-5.9140625c-0.9685059,0-1.8807373,0.2385254-2.6884766,0.6530762  c-1.0042725-1.0598145-2.0771484-2.1194458-3.2055664-3.1759033c2.3295898-2.1784668,4.3999023-4.3621216,6.1381836-6.4996338  c5.1894531-6.3828125,6.8857422-11.7177734,4.7773438-15.0214844c-2.7287598-4.2768555-11.3223877-3.9606934-22.1889648,0.0875244  c-0.3597412-1.6432495-0.760376-3.2147827-1.2036133-4.6986694c1.7963867-1.0463867,2.953125-2.9990234,2.953125-5.116394  c0-3.2607422-2.6533203-5.9140625-5.9140625-5.9140625c-0.7525635,0-1.4700928,0.1467896-2.1328125,0.4042969  C53.6569824,11.0152588,51.8166504,10,49.8857422,10c-4.9855957,0-9.2780762,7.1636963-11.7336426,18.1731567  c-2.1138916-0.7753906-4.1622314-1.4205933-6.1130371-1.9143677c-7.9765625-2.0166016-13.5283203-1.3085938-15.6357422,1.9951172  c-2.1083984,3.3037109-0.4121094,8.6386719,4.7773438,15.0214844c1.7369385,2.1358643,3.8054199,4.317749,6.1328125,6.4945068  C26.0998535,50.9061279,24.9648438,52.046814,23.8947754,53.1870728z M21.1806641,54.5214844  c2.1572266,0,3.9130859,1.7558594,3.9130859,3.9140625s-1.7558594,3.9140625-3.9130859,3.9140625  c-2.1582031,0-3.9140625-1.7558594-3.9140625-3.9140625S19.0224609,54.5214844,21.1806641,54.5214844z M49.8857422,88  c-3.7568359,0-7.6860352-6.4976196-9.9659424-17.3200684c3.293335-1.3001099,6.7192383-2.9003906,10.1925049-4.7689819  c3.3723145,1.8157349,6.654541,3.3516235,9.7768555,4.6020508C57.6147461,81.4372559,53.6628418,88,49.8857422,88z M37.9560547,50  c0-2.2402344,0.0620117-4.4047852,0.1755371-6.4926147c1.7980957-1.3023071,3.6608887-2.5739746,5.5734863-3.7944946  c2.1821289-1.3922119,4.322998-2.6588745,6.4130859-3.8141479c2.135498,1.1765747,4.2841797,2.4501343,6.421875,3.8141479  c1.7456055,1.1140137,3.4365234,2.2593384,5.0695801,3.4257202C61.7431641,45.385376,61.8164062,47.6777954,61.8164062,50  c0,2.1976929-0.059082,4.3236084-0.168457,6.3747559c-1.6450195,1.1761475-3.3493652,2.3312378-5.1079102,3.4533691  c-2.1378174,1.3643188-4.286377,2.6380005-6.4221191,3.8146973c-2.0899658-1.1553955-4.2307129-2.4223022-6.4128418-3.8146973  c-1.9345703-1.2344971-3.8029785-2.5089722-5.5991211-3.8077393C38.0085449,54.0788574,37.9560547,52.0713501,37.9560547,50z   M36.041748,54.4945679c-2.0397949-1.5490112-3.9633789-3.1266479-5.7496338-4.7122192  c1.7983398-1.595459,3.7260742-3.1828613,5.7694092-4.7368774C35.9945068,46.6674805,35.9560547,48.3179932,35.9560547,50  C35.9560547,51.5227051,35.9866943,53.0206299,36.041748,54.4945679z M38.3034668,40.9335938  c0.2828369-3.6315918,0.7281494-6.9973145,1.3041992-10.0482178c2.7260742,1.0941772,5.5456543,2.4037476,8.4086914,3.8997803  c-1.7810059,1.0083618-3.5803223,2.0891724-5.3874512,3.2421875C41.1437988,38.9749756,39.7087402,39.9485474,38.3034668,40.9335938  z M52.1899414,34.7802124c2.7755127-1.4564819,5.442627-2.6981812,7.9675293-3.7324829  c0.5600586,2.9910278,0.9838867,6.1856689,1.2612305,9.5211182c-1.2410889-0.8601685-2.5021973-1.7116699-3.8024902-2.5415039  C55.8111572,36.8755493,53.9985352,35.8028564,52.1899414,34.7802124z M63.6824951,44.6618652  c2.2335205,1.675293,4.3299561,3.387146,6.2752686,5.116272c-1.9284668,1.7120361-4.020874,3.4139404-6.2426758,5.081543  C63.779541,53.2681274,63.8164062,51.6491699,63.8164062,50C63.8164062,48.1995239,63.762085,46.4226685,63.6824951,44.6618652z   M61.4790039,58.9384155c-0.2648926,3.4545898-0.6772461,6.6688232-1.2089844,9.6027222  c-2.5578613-1.043335-5.263916-2.3016357-8.0804443-3.7798462c1.8087158-1.0228271,3.621582-2.0956421,5.4266357-3.2476196  C58.9343262,60.6726074,60.2207031,59.8117065,61.4790039,58.9384155z M42.6289062,61.5136719  c1.8095703,1.1547241,3.6096191,2.2301636,5.3928223,3.2398071c-2.8929443,1.5119019-5.7412109,2.8324585-8.4938965,3.9337769  c-0.5623779-3.0714111-0.9941406-6.4524536-1.2617188-10.0973511C39.6816406,59.583374,41.1357422,60.5609131,42.6289062,61.5136719  z M82.7333984,58.2119141c0,2.1582031-1.7558594,3.9140625-3.9130859,3.9140625  c-2.1582031,0-3.9140625-1.7558594-3.9140625-3.9140625s1.7558594-3.9140625,3.9140625-3.9140625  C80.9775391,54.2978516,82.7333984,56.0537109,82.7333984,58.2119141z M74.5214844,54.1629639  c-0.998291,1.0593262-1.6152344,2.4820557-1.6152344,4.0489502c0,3.2607422,2.6533203,5.9140625,5.9140625,5.9140625  c0.9504395,0,1.8461914-0.230835,2.6428223-0.6311035c1.0541992,2.1680908,1.8723145,4.869812,0.6931152,6.717041  c-2.0257568,3.1713257-9.6364746,2.9837646-20.0097656-0.9329224c0.6801758-3.6239624,1.1679688-7.6046753,1.4349365-11.8339844  c2.8284912-2.0583496,5.4689941-4.1798706,7.8653564-6.317749C72.5300293,52.1373901,73.5551758,53.1502686,74.5214844,54.1629639z   M82.15625,29.3300781c1.5839844,2.4824219-0.1083984,7.1054688-4.6435547,12.6826172  c-1.7126465,2.1062012-3.7595215,4.2606812-6.0686035,6.4118042c-2.4146729-2.1566162-5.0604248-4.286499-7.9008789-6.3516235  c-0.2819824-4.1481323-0.7890625-8.1114502-1.4929199-11.7745972C72.4743652,26.34552,80.1253662,26.1480713,82.15625,29.3300781z   M61.4023438,18.5263672c0,1.6123047-1.0117188,3.0820312-2.5166016,3.6572266  c-0.4462891,0.1708984-0.9160156,0.2568359-1.3974609,0.2568359c-2.1582031,0-3.9140625-1.7558594-3.9140625-3.9140625  s1.7558594-3.9140625,3.9140625-3.9140625S61.4023438,16.3681641,61.4023438,18.5263672z M49.8857422,12  c1.2438965,0,2.4970703,0.7025146,3.7266846,2.0701904c-1.2458496,1.085083-2.038208,2.6784058-2.038208,4.4561768  c0,3.2607422,2.6533203,5.9140625,5.9140625,5.9140625c0.3652344,0,0.7261963-0.0337524,1.0810547-0.0994263  c0.4418945,1.4927368,0.8439941,3.0692139,1.199707,4.7277832c-3.0847168,1.241272-6.329834,2.7705688-9.6568604,4.5616455  c-3.4405518-1.8509521-6.835083-3.439209-10.0997314-4.7328491C42.3049316,18.3311157,46.1784668,12,49.8857422,12z   M22.7324219,42.0126953c-4.5351562-5.5771484-6.2275391-10.2001953-4.6435547-12.6826172s6.4892578-2.8955078,13.4589844-1.1318359  c1.9694824,0.498291,4.0462646,1.1622925,6.1899414,1.9579468c-0.730835,3.7442017-1.2574463,7.8771362-1.5400391,12.2879028  c-2.6518555,1.9500732-5.12854,3.9523315-7.3978271,5.9793701C26.4912109,46.2727051,24.4448242,44.1185303,22.7324219,42.0126953z   M28.7966309,51.1258545c2.2575684,2.0140381,4.7287598,4.0144043,7.3725586,5.9604492  c0.2646484,4.4182129,0.7709961,8.5682373,1.4842529,12.3319092c-2.1138916,0.7817383-4.161499,1.4334717-6.1055908,1.9255371  c-6.9658203,1.7626953-11.875,1.3525391-13.4589844-1.1318359c-1.1374512-1.7824097-0.4067383-4.3614502,0.5616455-6.4390259  c0.7684326,0.3658447,1.6241455,0.5767212,2.5301514,0.5767212c3.2607422,0,5.9130859-2.6533203,5.9130859-5.9140625  c0-1.557312-0.6096191-2.9718018-1.5969238-4.0291138C26.5247803,53.3189697,27.6162109,52.2238159,28.7966309,51.1258545z"/></svg>