<svg xmlns="http://www.w3.org/2000/svg" data-name="Layer 1" viewBox="0 0 64 80" x="0px" y="0px"><title>Artboard 9</title><path d="M48.4516,15.5484V7.8065h3.871a.9675.9675,0,0,0,.9677-.9678V2.9677A.9674.9674,0,0,0,52.3226,2h-38.71a.9678.9678,0,0,0-.9677.9677v9.8558a2.9032,2.9032,0,1,0,1.9354,0V7.8065h2.9033v7.7419a.9536.9536,0,0,0,.13.4637,25.1124,25.1124,0,0,0,.6652,5.0041,3.9121,3.9121,0,0,0-.6282.5059,3.8692,3.8692,0,0,0,2.736,6.6069h.1444A13.6069,13.6069,0,0,0,28.129,38.4412v4.2063L23.29,42.6452l-.5892.0113A10.6661,10.6661,0,0,0,12.6452,53.29v7.742A.9678.9678,0,0,0,13.6129,62h38.71a.9674.9674,0,0,0,.9677-.9677V53.29A10.6615,10.6615,0,0,0,43.1772,42.6546l-5.3707-.0025v-4.211A13.6045,13.6045,0,0,0,45.404,28.129h.1444a3.8659,3.8659,0,0,0,2.1078-7.1129,25.0827,25.0827,0,0,0,.6653-5.004A.9535.9535,0,0,0,48.4516,15.5484Zm-34.8387.9677a.9678.9678,0,1,1,.9677-.9677A.9689.9689,0,0,1,13.6129,16.5161Zm.9677-12.5806H51.3548V5.871H14.5806Zm31.9355,3.871V14.36a16.5606,16.5606,0,0,0-13.5484,3.7727c-.4088-.3522-.8356-.6771-1.2727-.9852A16.2789,16.2789,0,0,0,28.07,15.2157l-.0012,0-.0035-.0015-.0026,0a16.4439,16.4439,0,0,0-8.6428-.853V7.8065ZM19.5693,16.3142a13.8275,13.8275,0,0,1,6.5956.3209c-1.6184,1.5019-4.6261,1.0686-4.6589,1.0638a.9681.9681,0,0,0-1.1189.9559v1.7323c-.0881,0-.1722.02-.2593.0254A23.4586,23.4586,0,0,1,19.5693,16.3142Zm.8178,9.8793a1.9355,1.9355,0,0,1,0-3.8709v3.8709ZM31.2285,39.4861c.1237.0258.2465.0532.371.0756.4249.0766.8528.14,1.286.1769.0274.0024.0548.0033.0822.0033s.0549-.0009.0823-.0033c.4327-.0369.86-.1,1.2849-.1767.1258-.0226.25-.05.3748-.0765q.4683-.0979.9277-.2276c.0771-.0218.1568-.0342.2336-.0574v3.4448H30.0645V39.2c.0749.0226.1526.0346.2278.0559Q30.7561,39.3876,31.2285,39.4861Zm1.7392,20.4185a16.92,16.92,0,0,1-8.1643-13.7065l-.068-1.6089,5.3522-.0026.7528,1.9723-1.6127,5.9258a.9675.9675,0,0,0,.1781.859l2.8111,3.4608a.9684.9684,0,0,0,1.5017,0l2.8111-3.46a.9673.9673,0,0,0,.1786-.86L35.0957,46.56l.7538-1.9756,5.351-.0025-.0684,1.6162A16.921,16.921,0,0,1,32.9677,59.9046Zm-.3733-12.4207h.7471l1.37,5.0334L32.9677,54.66l-1.7431-2.1425Zm.8152-1.9355h-.8837l-.3671-.9628,1.6187-.0008ZM22.7583,44.59h.04l.0714,1.69a18.8806,18.8806,0,0,0,6.9613,13.7846H21.3548V44.8105A8.6358,8.6358,0,0,1,22.7583,44.59Zm-8.1777,8.7a8.6733,8.6733,0,0,1,4.8388-7.8013V60.0645H14.5806Zm36.7742,0v6.7742H46.5161V45.4887A8.6733,8.6733,0,0,1,51.3548,53.29Zm-6.7742-8.4786V60.0645H36.1039a18.8824,18.8824,0,0,0,6.9618-13.7851l.0714-1.6892A8.8076,8.8076,0,0,1,44.5806,44.8117Zm-8.1161-7.8785a11.8261,11.8261,0,0,1-3.4968.87c-.3349-.0309-.6662-.0787-.995-.137a11.7745,11.7745,0,0,1-2.5017-.7325h0a11.685,11.685,0,0,1-7.1479-10.7783V19.6981c1.54.0364,4.29-.2374,5.8025-2.354.0787.0349.1594.0655.2374.1018.1346.0627.2675.1288.4.1956q.3329.1677.6562.3526c.1278.0729.2556.1456.3812.2225.225.1377.4447.2844.6623.4345.1053.0727.213.1417.3165.2173.3155.23.6244.4707.9222.7272l.6289.5515a.9672.9672,0,0,0,1.2759,0l.6228-.5458c.2992-.258.6094-.5.926-.7308.1024-.0748.2086-.143.3127-.2149.22-.1522.4426-.3007.6705-.44.1229-.0752.2483-.1466.3734-.218q.3294-.1884.6683-.3592c.13-.0654.26-.13.392-.1916.0785-.0365.16-.0674.2391-.1026,1.5119,2.1171,4.2637,2.3866,5.8024,2.354v6.4567A11.6828,11.6828,0,0,1,36.4645,36.9332Zm9.0839-10.74V22.3226a1.9355,1.9355,0,1,1,0,3.8709Zm0-5.8064V18.6548a.9692.9692,0,0,0-1.1171-.9564c-.0348.0065-3.043.4385-4.661-1.0634a13.8537,13.8537,0,0,1,6.5962-.3215,23.4114,23.4114,0,0,1-.5587,4.099C45.7207,20.4066,45.6365,20.3871,45.5484,20.3871Z"/></svg>