<svg xmlns="http://www.w3.org/2000/svg" viewBox="0 0 100 125" fill="none" x="0px" y="0px"><path d="M89.8933 14.5839H80.36V7H77.0049V14.5839H68.3333V7H64.9782V14.5839H34.9849V7H31.63V14.5839H22.9582V7H19.6033V14.5839H10.1067C9.56854 14.5825 9.03541 14.6876 8.53775 14.8932C8.04008 15.0987 7.58763 15.4007 7.20625 15.7819C6.82488 16.1631 6.52206 16.616 6.31508 17.1148C6.10811 17.6135 6.00104 18.1483 6.00001 18.6886V88.8767C5.99912 89.4184 6.10473 89.955 6.31079 90.4557C6.51686 90.9563 6.81932 91.4112 7.20084 91.7943C7.58236 92.1774 8.03542 92.4811 8.53407 92.688C9.03271 92.8949 9.56713 93.0009 10.1067 93H89.8933C90.4329 93.0009 90.9673 92.8949 91.4659 92.688C91.9646 92.4811 92.4177 92.1774 92.7992 91.7943C93.1807 91.4112 93.4832 90.9563 93.6892 90.4557C93.8953 89.955 94.0009 89.4184 94 88.8767V18.6886C93.999 18.1483 93.8919 17.6135 93.6849 17.1148C93.4779 16.616 93.1751 16.1631 92.7937 15.7819C92.4124 15.4007 91.9599 15.0987 91.4623 14.8932C90.9646 14.6876 90.4315 14.5825 89.8933 14.5839V14.5839ZM90.7 88.8767C90.6982 89.091 90.6126 89.2959 90.4617 89.4474C90.3108 89.5989 90.1067 89.6848 89.8933 89.6866H10.1067C9.8933 89.6848 9.68919 89.5989 9.5383 89.4474C9.38742 89.2959 9.30184 89.091 9.30001 88.8767V34.0037H90.7V88.8767ZM90.7 30.6167H9.30001V18.6886C9.30264 18.4764 9.38906 18.2738 9.5403 18.1254C9.69154 17.977 9.89523 17.895 10.1067 17.8973H19.6033V24.1005H22.9582V17.8973H31.63V24.1005H34.9849V17.8973H64.9782V24.1005H68.3333V17.8973H77.0049V24.1005H80.36V17.8973H89.8933C90.1048 17.895 90.3085 17.977 90.4597 18.1254C90.611 18.2738 90.6974 18.4764 90.7 18.6886V30.6167Z" fill="black"/><path d="M80.4029 47.7284H68.4167V51.1024H80.4029V47.7284Z" fill="black"/><path d="M57.0054 47.5796H45.0192V50.9537H57.0054V47.5796Z" fill="black"/><path d="M27.4271 42.9147C28.6851 42.9147 29.9148 43.2893 30.9607 43.991C32.0067 44.6927 32.8219 45.69 33.3033 46.857C33.7847 48.0239 33.9107 49.3079 33.6653 50.5467C33.4198 51.7854 32.8141 52.9233 31.9246 53.8164C31.0351 54.7096 29.9017 55.3178 28.668 55.5642C27.4342 55.8106 26.1553 55.6841 24.9931 55.2008C23.8309 54.7174 22.8376 53.8989 22.1387 52.8487C21.4398 51.7985 21.0668 50.5639 21.0668 49.3008C21.0687 47.6077 21.7394 45.9845 22.9318 44.7873C24.1242 43.5901 25.7408 42.9167 27.4271 42.9147ZM27.4271 39.7854C25.5527 39.7854 23.7205 40.3435 22.162 41.3891C20.6035 42.4346 19.3888 43.9207 18.6715 45.6594C17.9542 47.3981 17.7665 49.3114 18.1322 51.1572C18.4979 53.003 19.4005 54.6984 20.7259 56.0292C22.0512 57.3599 23.7399 58.2662 25.5782 58.6333C27.4166 59.0005 29.3221 58.812 31.0538 58.0919C32.7855 57.3717 34.2656 56.1521 35.307 54.5873C36.3483 53.0225 36.9041 51.1828 36.9041 49.3008C36.9041 46.7772 35.9057 44.3569 34.1284 42.5724C32.3511 40.7879 29.9406 39.7854 27.4271 39.7854Z" fill="black"/><path d="M29.9671 47.587H24.9684V50.961H29.9671V47.587Z" fill="black"/><path d="M80.4029 58.7729H68.4167V62.1469H80.4029V58.7729Z" fill="black"/><path d="M57.0054 58.6241H45.0192V61.9982H57.0054V58.6241Z" fill="black"/><path d="M80.4029 69.8174H68.4167V73.1914H80.4029V69.8174Z" fill="black"/><path d="M57.0054 69.6687H45.0192V73.0427H57.0054V69.6687Z" fill="black"/><path d="M33.3577 69.8389H21.3715V73.2129H33.3577V69.8389Z" fill="black"/></svg>